HIERARCHY
ROOT joint_Root
{
	OFFSET 0.0 0.0 0.0
	CHANNELS 6 Xposition Yposition Zposition Zrotation Xrotation Yrotation 
	JOINT Hips
	{
		OFFSET 4.5925 91.4895 -427.239
		CHANNELS 6 Xposition Yposition Zposition Zrotation Xrotation Yrotation 
		JOINT Spine
		{
			OFFSET 15.7357 0.0 0.0
			CHANNELS 6 Xposition Yposition Zposition Zrotation Xrotation Yrotation 
			JOINT Chest
			{
				OFFSET 8.98455 -0.406207 0.0
				CHANNELS 6 Xposition Yposition Zposition Zrotation Xrotation Yrotation 
				JOINT Neck
				{
					OFFSET 16.3773 0.0 0.0
					CHANNELS 6 Xposition Yposition Zposition Zrotation Xrotation Yrotation 
					JOINT Head
					{
						OFFSET 6.45672 0.0 0.0
						CHANNELS 6 Xposition Yposition Zposition Zrotation Xrotation Yrotation 
						End Site
						{
							OFFSET 0.0 0.0 0.0
						}
					}
				}
				JOINT Shoulder_L
				{
					OFFSET 12.9942 -0.242716 4.98039
					CHANNELS 6 Xposition Yposition Zposition Zrotation Xrotation Yrotation 
					JOINT UpperArm_L
					{
						OFFSET 5.34809 0.0 0.0
						CHANNELS 6 Xposition Yposition Zposition Zrotation Xrotation Yrotation 
						JOINT LowerArm_L
						{
							OFFSET 24.3286 1.87007e-05 0.0
							CHANNELS 6 Xposition Yposition Zposition Zrotation Xrotation Yrotation 
							JOINT Hand_L
							{
								OFFSET 22.2916 0.0 0.0
								CHANNELS 6 Xposition Yposition Zposition Zrotation Xrotation Yrotation 
								End Site
								{
									OFFSET 0.0 0.0 0.0
								}
							}
						}
					}
				}
				JOINT Shoulder_R
				{
					OFFSET 12.9945 -0.242716 -4.98039
					CHANNELS 6 Xposition Yposition Zposition Zrotation Xrotation Yrotation 
					JOINT UpperArm_R
					{
						OFFSET -5.34813 0.0 0.0
						CHANNELS 6 Xposition Yposition Zposition Zrotation Xrotation Yrotation 
						JOINT LowerArm_R
						{
							OFFSET -24.3289 0.000322201 0.0
							CHANNELS 6 Xposition Yposition Zposition Zrotation Xrotation Yrotation 
							JOINT Hand_R
							{
								OFFSET -22.2915 -0.000108084 0.0
								CHANNELS 6 Xposition Yposition Zposition Zrotation Xrotation Yrotation 
								End Site
								{
									OFFSET 0.0 0.0 0.0
								}
							}
						}
					}
				}
			}
		}
		JOINT UpperLeg_L
		{
			OFFSET -2.19248 -6.46944 0.0
			CHANNELS 6 Xposition Yposition Zposition Zrotation Xrotation Yrotation 
			JOINT LowerLeg_L
			{
				OFFSET 39.0811 0.0 -1.23785e-05
				CHANNELS 6 Xposition Yposition Zposition Zrotation Xrotation Yrotation 
				JOINT Foot_L
				{
					OFFSET 40.9854 0.0 -1.26872e-05
					CHANNELS 6 Xposition Yposition Zposition Zrotation Xrotation Yrotation 
					JOINT Toes_L
					{
						OFFSET 11.7543 0.0 0.0
						CHANNELS 6 Xposition Yposition Zposition Zrotation Xrotation Yrotation 
						End Site
						{
							OFFSET 0.0 0.0 0.0
						}
					}
				}
			}
		}
		JOINT UpperLeg_R
		{
			OFFSET -2.19251 6.46944 0.0
			CHANNELS 6 Xposition Yposition Zposition Zrotation Xrotation Yrotation 
			JOINT LowerLeg_R
			{
				OFFSET -39.0811 -0.00228153 -0.0401928
				CHANNELS 6 Xposition Yposition Zposition Zrotation Xrotation Yrotation 
				JOINT Foot_R
				{
					OFFSET -40.9854 0.0 0.0
					CHANNELS 6 Xposition Yposition Zposition Zrotation Xrotation Yrotation 
					JOINT Toes_R
					{
						OFFSET -11.7543 0.0 0.0
						CHANNELS 6 Xposition Yposition Zposition Zrotation Xrotation Yrotation 
						End Site
						{
							OFFSET 0.0 0.0 0.0
						}
					}
				}
			}
		}
	}
}
MOTION
Frames:	6
Frame Time:	0.0333333
0.000000 0.000000 0.000000 0.000000 0.000000 -0.000000 -0.724830 89.992700 -5.344450 89.561900 0.538293 14.052400 15.735700 0.000005 -0.000001 89.923800 77.226800 -89.002300 8.984550 -0.406207 -0.000000 17.780600 0.046803 1.839020 16.377300 -0.000001 -0.000001 10.923700 -2.399490 5.313680 6.456720 -0.000001 -0.000000 -0.451073 -2.161940 12.768400 12.994200 -0.242716 4.980390 -90.072800 0.251383 -73.843200 5.348090 -0.000007 -0.000001 -51.346300 -11.945200 -70.700700 24.328600 0.000019 0.000005 39.983900 -3.678100 -94.374300 22.291600 -0.000001 0.000005 22.921100 5.037570 6.509870 12.994500 -0.242716 -4.980390 89.091700 11.047900 -85.270500 -5.348130 -0.000001 -0.000004 -54.947200 32.854500 -24.216600 -24.328900 0.000322 -0.000009 1.342070 3.607740 -20.435600 -22.291500 -0.000108 -0.000004 15.565700 5.407240 -3.174140 -2.192480 -6.469440 -0.000000 -174.268000 -12.307700 -3.060730 39.081100 -0.000007 -0.000012 -0.183277 0.251357 36.098000 40.985400 -0.000006 -0.000013 1.014920 6.570640 -68.815900 11.754300 -0.000000 0.000003 -0.000135 -0.001326 -16.628100 -2.192510 6.469440 -0.000001 173.116000 22.467200 179.414000 -39.081100 -0.002282 -0.040193 -0.221967 0.315042 35.565300 -40.985400 0.000008 0.000006 3.877520 11.554900 -70.234700 -11.754300 -0.000006 -0.000006 -0.002160 -0.030705 -17.821700
0.000000 0.000000 0.000000 0.000000 0.000000 -0.000000 -0.720280 89.984600 -5.372020 89.552900 0.344707 14.059800 15.735700 0.000005 -0.000001 89.861900 77.215500 -88.949300 8.984550 -0.406207 -0.000000 17.803500 0.019069 1.825610 16.377300 -0.000001 -0.000001 10.917100 -2.367420 5.211820 6.456720 -0.000001 -0.000000 -0.458536 -2.127610 12.744400 12.994200 -0.242716 4.980390 -90.060600 0.209469 -73.856100 5.348090 -0.000007 -0.000001 -48.610400 -11.231400 -71.241900 24.328600 0.000019 0.000005 40.313900 -4.768190 -95.595400 22.291600 -0.000001 0.000005 22.643600 5.053580 6.158020 12.994500 -0.242716 -4.980390 89.092300 11.035200 -85.268400 -5.348130 -0.000001 -0.000004 -54.999800 33.007600 -24.228100 -24.328900 0.000322 -0.000009 1.326520 3.562590 -20.453000 -22.291500 -0.000108 -0.000004 15.479800 5.408060 -3.201340 -2.192480 -6.469440 -0.000000 -174.242000 -12.406800 -3.062520 39.081100 -0.000007 -0.000012 -0.183000 0.250573 36.142000 40.985400 -0.000006 -0.000013 0.991662 6.456010 -68.836500 11.754300 -0.000000 0.000003 -0.000138 -0.001352 -16.629000 -2.192510 6.469440 -0.000001 173.159000 22.347900 179.351000 -39.081100 -0.002282 -0.040193 -0.225742 0.319895 35.601400 -40.985400 0.000008 0.000006 3.873290 11.616500 -70.215000 -11.754300 -0.000006 -0.000006 -0.002328 -0.032746 -17.904700
0.000000 0.000000 0.000000 0.000000 0.000000 -0.000000 -0.718064 89.977000 -5.379550 89.564400 0.120454 14.118900 15.735700 0.000005 -0.000001 89.774000 77.187400 -88.865200 8.984550 -0.406207 -0.000000 17.859700 -0.019515 1.824250 16.377300 -0.000001 -0.000001 10.925300 -2.359810 5.106600 6.456720 -0.000001 -0.000000 -0.466783 -2.104020 12.688000 12.994200 -0.242716 4.980390 -90.058800 0.203805 -73.900900 5.348090 -0.000007 -0.000001 -46.201200 -10.739000 -71.623400 24.328600 0.000019 0.000005 40.703100 -5.879560 -96.790900 22.291600 -0.000001 0.000005 22.357700 5.061420 5.984210 12.994500 -0.242716 -4.980390 89.084600 11.031800 -85.227000 -5.348130 -0.000001 -0.000004 -55.066900 33.119500 -24.225900 -24.328900 0.000322 -0.000009 1.321780 3.563120 -20.383300 -22.291500 -0.000108 -0.000004 15.516500 5.408180 -3.205220 -2.192480 -6.469440 -0.000000 -174.192000 -12.568000 -2.983580 39.081100 -0.000007 -0.000012 -0.185353 0.253559 36.167400 40.985400 -0.000006 -0.000013 0.969807 6.383870 -68.858800 11.754300 -0.000000 0.000003 -0.000138 -0.001349 -16.629000 -2.192510 6.469440 -0.000001 173.169000 22.204300 179.347000 -39.081100 -0.002282 -0.040193 -0.225257 0.318677 35.647300 -40.985400 0.000008 0.000006 3.910860 11.688200 -70.220200 -11.754300 -0.000006 -0.000006 -0.002388 -0.033472 -17.934200
0.000000 0.000000 0.000000 0.000000 0.000000 -0.000000 -0.711231 89.975100 -5.387770 89.579400 -0.149366 14.167800 15.735700 0.000005 -0.000001 89.576500 77.162700 -88.663400 8.984550 -0.406207 -0.000000 17.909300 -0.105811 1.846590 16.377300 -0.000001 -0.000001 10.927900 -2.361030 4.994690 6.456720 -0.000001 -0.000000 -0.442697 -2.088110 12.613000 12.994200 -0.242716 4.980390 -90.060700 0.210319 -73.911500 5.348090 -0.000007 -0.000001 -44.606900 -10.475800 -71.748100 24.328600 0.000019 0.000005 41.404400 -7.038740 -97.911900 22.291600 -0.000001 0.000005 22.103700 5.073490 5.714680 12.994500 -0.242716 -4.980390 89.086900 11.021100 -85.234100 -5.348130 -0.000001 -0.000004 -55.158300 33.164400 -24.139000 -24.328900 0.000322 -0.000009 1.330710 3.597850 -20.328000 -22.291500 -0.000108 -0.000004 15.528500 5.407940 -3.197290 -2.192480 -6.469440 -0.000000 -174.138000 -12.768800 -2.889220 39.081100 -0.000007 -0.000012 -0.184847 0.252892 36.164700 40.985400 -0.000006 -0.000013 0.956904 6.343630 -68.876200 11.754300 -0.000000 0.000003 -0.000136 -0.001339 -16.628600 -2.192510 6.469440 -0.000001 173.222000 21.988000 179.329000 -39.081100 -0.002282 -0.040193 -0.217666 0.307797 35.673300 -40.985400 0.000008 0.000006 3.963380 11.715000 -70.219100 -11.754300 -0.000006 -0.000006 -0.002349 -0.033001 -17.915100
0.000000 0.000000 0.000000 0.000000 0.000000 -0.000000 -0.706657 89.967100 -5.371070 89.610200 -0.477177 14.227800 15.735700 0.000005 -0.000001 89.402400 77.134600 -88.486400 8.984550 -0.406207 -0.000000 17.965500 -0.182249 1.864580 16.377300 -0.000001 -0.000001 10.911500 -2.366090 4.929120 6.456720 -0.000001 -0.000000 -0.419210 -2.066280 12.543500 12.994200 -0.242716 4.980390 -90.071400 0.247347 -73.911400 5.348090 -0.000007 -0.000001 -43.971000 -10.458500 -71.654500 24.328600 0.000019 0.000005 41.474400 -7.975330 -98.920800 22.291600 -0.000001 0.000005 22.079300 5.083990 5.478010 12.994500 -0.242716 -4.980390 89.079000 11.019700 -85.192700 -5.348130 -0.000001 -0.000004 -55.304600 33.080100 -24.021800 -24.328900 0.000322 -0.000009 1.383680 3.762790 -20.221000 -22.291500 -0.000108 -0.000004 15.468500 5.406850 -3.161480 -2.192480 -6.469440 -0.000000 -174.096000 -12.942000 -2.767240 39.081100 -0.000007 -0.000012 -0.186671 0.255268 36.177400 40.985400 -0.000006 -0.000013 0.915381 6.228760 -68.922000 11.754300 -0.000000 0.000003 -0.000129 -0.001276 -16.626200 -2.192510 6.469440 -0.000001 173.208000 21.797400 179.331000 -39.081100 -0.002282 -0.040193 -0.222515 0.314015 35.719700 -40.985400 0.000008 0.000006 3.963650 11.852800 -70.224600 -11.754300 -0.000006 -0.000006 -0.002426 -0.033927 -17.952700
0.000000 0.000000 0.000000 0.000000 0.000000 -0.000000 -0.693090 89.957200 -5.356340 89.630000 -0.877021 14.251500 15.735700 0.000005 -0.000001 89.339600 77.122100 -88.410200 8.984550 -0.406207 -0.000000 17.990600 -0.208827 1.895600 16.377300 -0.000001 -0.000001 10.894400 -2.412800 4.910820 6.456720 -0.000001 -0.000000 -0.427557 -2.098480 12.506600 12.994200 -0.242716 4.980390 -90.089800 0.311078 -73.896500 5.348090 -0.000007 -0.000001 -44.324000 -10.660600 -71.375200 24.328600 0.000019 0.000005 40.969900 -8.640470 -99.815500 22.291600 -0.000001 0.000005 22.210400 5.085890 5.435080 12.994500 -0.242716 -4.980390 89.067200 11.027400 -85.134700 -5.348130 -0.000001 -0.000004 -55.349500 33.080600 -23.836700 -24.328900 0.000322 -0.000009 1.365230 3.717100 -20.198300 -22.291500 -0.000108 -0.000004 15.510500 5.407580 -3.185290 -2.192480 -6.469440 -0.000000 -174.043000 -13.189000 -2.677560 39.081100 -0.000007 -0.000012 -0.187100 0.255568 36.208000 40.985400 -0.000006 -0.000013 0.871753 6.068720 -68.983300 11.754300 -0.000000 0.000003 -0.000141 -0.001377 -16.630000 -2.192510 6.469440 -0.000001 173.257000 21.520200 179.266000 -39.081100 -0.002282 -0.040193 -0.223369 0.314573 35.773900 -40.985400 0.000008 0.000006 3.966290 11.974700 -70.224000 -11.754300 -0.000006 -0.000006 -0.002384 -0.033430 -17.932500
